<svg id="Calque_1" data-name="Calque 1" xmlns="http://www.w3.org/2000/svg" viewBox="0 0 440 260"><defs><style>.cls-1{fill:#761113;}.cls-2{fill:#fff;}</style></defs><path class="cls-1" d="M407.54,170.35,436.19,61.62C443.57,34,422,32.6,422,32.6L35.59,3S-4.11,0,3.16,46.35L28.68,230.17s3.07,31.65,30.86,26.27L387.8,189.58A26.55,26.55,0,0,0,407.54,170.35Z"/><path class="cls-2" d="M152.52,153.89v10.84H151.3V153.89Z"/><path class="cls-2" d="M171.6,153.89h1.19v10.84h-1l-7-8.89v8.89h-1.19V153.89h1.15l6.83,8.69Z"/><path class="cls-2" d="M187.88,164.73h-1.24V155H183v-1.13h8.52V155h-3.64Z"/><path class="cls-2" d="M209.57,155H203v3.71h5.92v1.11H203v3.8h6.69v1.11h-7.91V153.89h7.83Z"/><path class="cls-2" d="M227.5,164.73l-3.14-4.21h-3.1v4.21H220V153.89h4.66c2.38,0,3.92,1.28,3.92,3.24a3.17,3.17,0,0,1-2.94,3.17l3.33,4.43ZM224.61,155h-3.35v4.4h3.33c1.63,0,2.79-.84,2.79-2.25S226.36,155,224.61,155Z"/><path class="cls-2" d="M249.26,164.73h-1.32l-1.27-2.86h-5.9l-1.29,2.86h-1.25l4.94-10.92h1.14Zm-5.53-9.49-2.48,5.53h4.94Z"/><path class="cls-2" d="M263.64,164.92a5.61,5.61,0,0,1,0-11.22,5.64,5.64,0,0,1,4.23,1.72l-.84.9a4.68,4.68,0,0,0-3.4-1.49,4.49,4.49,0,0,0,0,9,4.73,4.73,0,0,0,3.5-1.57l.8.79A5.63,5.63,0,0,1,263.64,164.92Z"/><path class="cls-2" d="M282.14,164.73H280.9V155h-3.64v-1.13h8.52V155h-3.64Z"/><path class="cls-2" d="M297.32,153.89v10.84H296.1V153.89Z"/><path class="cls-2" d="M316.59,153.89h1.31l-4.66,10.92h-1.08l-4.67-10.92h1.37l3.85,9.34Z"/><path class="cls-2" d="M335.8,155h-6.61v3.71h5.91v1.11h-5.91v3.8h6.69v1.11H328V153.89h7.84Z"/><path class="cls-2" d="M339.5,89.18a3.82,3.82,0,0,1-.13.36,118.47,118.47,0,0,1-6.83,10.21c-3.73,5-4.24,3.69-3.39.18s4.38-12,8-13.86c2.83-1.41,6,.79,6,.79l1.74-1.61c-7.82-4.77-13.19-1.51-16.33,1.68h0c-6.23,5.82-4.43,3.75-13.67,13.08,0,0,1.19-4.47,1.55-5.5h0c.9-2.94,2.05-6.88,2.42-8.53.57-2.62-2.25-6.17-9.9,2.49-2.17,2.46-3.94,4.6-5.37,6.43.85-3,2-7,2.48-8.84.69-2.65-1.12-6.24-9,1.8a2.83,2.83,0,0,0-.24.25A182.69,182.69,0,0,0,282.05,104s.86-3,1.72-5.66c1.08-3.32,2.61-7,3.26-8.9l-6.77,1a67.77,67.77,0,0,1-7.4,12.67c-4.51,6.11-5.38,5.11-4.32.74s5-13.57,9.51-15.9,6.78,0,6.78,0l2.52-1.76c-9.84-6-16.24-1.17-20.08,2.92h0l0,0-.79.87a12.57,12.57,0,0,0-1.18,1.64c-2.37,2.94-6.93,8.45-14.2,16.53,0,0,2.27-7.54,2.73-8.86.9-2.58,1.8-5.14,2.71-7.71.66-1.85,3.91-10,7.25-18.2,22.56-.87,41.17.39,41.17.39l5.24-2.93a317.81,317.81,0,0,0-44-3.33c2.62-6.47,4.9-12.08,5.49-13.56l-9.94,1.81c-.05.05-2.09,5.42-4.52,11.83C234.75,68.16,221,71,221,71l-5.36,8.54c11.9-3.13,25.85-4.81,39.14-5.65-.73,2-1.46,3.86-2.13,5.65-3.17,5.74-10.92,19.39-18.59,29.91.07-2,.07-4.2.15-6.75.36-11.16.72-15.7.72-15.7l-6.61.93s-12.41,17.38-23.5,30.44c0,0,2.15-6.93,2.62-8.26.92-2.56,1.84-5.13,2.78-7.68,1.38-3.79,3.64-9.23,5.15-13l-8.06,1.25s-8.5,19.29-20.23,33.11c0,0,2.63-8.57,3.13-10,1-2.71,2-5.42,2.94-8.12,1.46-4,3.56-9.84,5.16-13.79l-7.72,1.35s-15.19,23.83-31,39.62c0,0,2.69-8.83,3.29-10.5,1.17-3.25,2.33-6.5,3.52-9.74,1.75-4.8,3.47-9.6,5.39-14.33,1.89-4.58,3.32-8.08,2.42-8.44s-5.74-.36-21.71,17.59a211.9,211.9,0,0,0-15.19,19.29c4.52-12.65,9.4-26.13,11.61-31.58,1.88-4.58,3.32-8.08,2.42-8.44s-5.74-.35-21.71,17.59c-10.47,11.77-13.58,15-19,22.89,4-10.62,8.11-21.24,11.47-29.18,2.75-6.22,3.65-7.84,4.25-9.27,1-2.46.31-4.54-6.27-1.79S95.73,98.8,76.47,117.35l4,.6s13.39-13.61,30.49-19.83c0,0-21.89,47.62-29.07,77.88l13.52-6.69s2.18-6.21,5.45-15.26c5.18-11.18,14.86-27.59,32.36-46.15,0,0-12.81,35.77-17.3,51.39l11.94-5.54c6-11.31,13.16-26.15,29.16-43.55l-.08.23c-1.42,4-3.43,8.5-4.83,12.53-.58,1.67-1.16,3.33-1.73,5,0,0-2.78,8.76-3.77,13.06s3.29,9.48,16.66-4.07c6.89-7,13.2-14.44,17.7-20.05,0,.17-.11.34-.17.51,0,0-2.56,8.63-3.38,12.22s2.68,8.82,12.89-3.17a96.55,96.55,0,0,0,6.69-8.93c-.56,2.17-1.19,4.81-1.51,6.92-.53,3.45,2,8.76,12-2.41,5.56-6.18,13.24-16.06,19.06-23.76-.3,2.72-.63,6.34-.68,9.68-.09,6.49-.67,8.8-2.17,8.93-1.32.1-2.51-1.82-2.15-7.94l-3.64,4.41s-.78,11.09,8.14,8.48a11.74,11.74,0,0,0,5.51-3A44.84,44.84,0,0,0,236,114.1a111.78,111.78,0,0,0,8.73-12.57c-.58,2.13-2.3,8.64-2.82,12.27-.5,3.45,1.65,8.35,12-2.52,2.33-2.44,4.47-4.79,6.42-7-.93,4.78-.41,9,3.44,9.44,3.63.44,8.09-3.92,12-9-.39,1.48-.79,3-1,4.05-.53,2.48,2.32,6.58,9.56-1.6,5.48-6.2,10.83-12,13.42-14.75-.58,1.43-1.32,3.29-1.52,3.86-.65,1.87-4.13,10.9-5.2,13.63l6.47-.65c2.54-4.9,8.2-11.78,13.1-17.67,0,0-.78,2.58-1.35,4.41-.12.39-.3.94-.5,1.58v0h0a65.33,65.33,0,0,0-2.14,8.22c-.38,2.68,1.76,6.67,9.83-1.78,2.69-2.83,5.09-5.27,7.18-7.35-1.62,5.28-2,10.85,1.85,11.23,2.78.28,5.56-1.38,8.1-3.82-1.1,2.61-2.19,5-3.27,7.2a50.12,50.12,0,0,1-3.39,6.7c-8.82,15.13-16,17.13-16,17.13-2.95,1.23-7.06,2.37-8.06-1.5-1.15-4.45,3.82-8.78,7.41-10.62,6.18-3.16,7.76-3.78,12.09-5l.75-.17c.71-1.38,1.62-3.15,2.34-4.58-14.65.88-60.93,2.89-90.91,15.91l-4.14,11.23s35.1-14.36,74-19.71a19.21,19.21,0,0,0-10.82,14.12c-1.48,8.09,7.62,10.35,13.33,9.21,5.86-1.15,10.72-4.31,15.14-8.47,0,0,8.57-7.21,20.69-39.68.38-1,2.34-6.44,3-8Z"/></svg>